<mxfile host="app.diagrams.net" agent="Mozilla/5.0 (Windows NT 10.0; Win64; x64) AppleWebKit/537.36 (KHTML, like Gecko) Chrome/131.0.0.0 Safari/537.36" version="25.0.3">
  <diagram name="Page-1" id="lCKK0SYmYycJSSmMypmF">
    <mxGraphModel dx="1562" dy="818" grid="1" gridSize="10" guides="1" tooltips="1" connect="1" arrows="1" fold="1" page="1" pageScale="1" pageWidth="850" pageHeight="1100" math="0" shadow="0">
      <root>
        <mxCell id="0" />
        <mxCell id="1" parent="0" />
        <mxCell id="tOVqJOseBS--4NqwXfb2-4" style="edgeStyle=orthogonalEdgeStyle;rounded=0;orthogonalLoop=1;jettySize=auto;html=1;exitX=0.5;exitY=1;exitDx=0;exitDy=0;entryX=0.5;entryY=0;entryDx=0;entryDy=0;" parent="1" source="tOVqJOseBS--4NqwXfb2-1" target="tOVqJOseBS--4NqwXfb2-3" edge="1">
          <mxGeometry relative="1" as="geometry" />
        </mxCell>
        <mxCell id="tOVqJOseBS--4NqwXfb2-1" value="&lt;font style=&quot;font-size: 16px;&quot;&gt;Begin heartbeat thread&lt;/font&gt;" style="rounded=0;whiteSpace=wrap;html=1;" parent="1" vertex="1">
          <mxGeometry x="240" y="170" width="120" height="60" as="geometry" />
        </mxCell>
        <mxCell id="tOVqJOseBS--4NqwXfb2-5" style="edgeStyle=orthogonalEdgeStyle;rounded=0;orthogonalLoop=1;jettySize=auto;html=1;exitX=0.5;exitY=1;exitDx=0;exitDy=0;entryX=0.5;entryY=0;entryDx=0;entryDy=0;" parent="1" source="tOVqJOseBS--4NqwXfb2-2" target="tOVqJOseBS--4NqwXfb2-1" edge="1">
          <mxGeometry relative="1" as="geometry" />
        </mxCell>
        <mxCell id="tOVqJOseBS--4NqwXfb2-2" value="&lt;font style=&quot;font-size: 20px;&quot;&gt;START&lt;/font&gt;" style="ellipse;whiteSpace=wrap;html=1;" parent="1" vertex="1">
          <mxGeometry x="240" y="70" width="120" height="80" as="geometry" />
        </mxCell>
        <mxCell id="tOVqJOseBS--4NqwXfb2-7" style="edgeStyle=orthogonalEdgeStyle;rounded=0;orthogonalLoop=1;jettySize=auto;html=1;exitX=0.5;exitY=1;exitDx=0;exitDy=0;entryX=0.5;entryY=0;entryDx=0;entryDy=0;" parent="1" source="tOVqJOseBS--4NqwXfb2-3" target="tOVqJOseBS--4NqwXfb2-6" edge="1">
          <mxGeometry relative="1" as="geometry" />
        </mxCell>
        <mxCell id="tOVqJOseBS--4NqwXfb2-3" value="&lt;font style=&quot;font-size: 16px;&quot;&gt;Wait for &quot;HELLO&quot;&lt;/font&gt;" style="rounded=0;whiteSpace=wrap;html=1;" parent="1" vertex="1">
          <mxGeometry x="240" y="250" width="120" height="60" as="geometry" />
        </mxCell>
        <mxCell id="tOVqJOseBS--4NqwXfb2-9" style="edgeStyle=orthogonalEdgeStyle;rounded=0;orthogonalLoop=1;jettySize=auto;html=1;exitX=0.5;exitY=1;exitDx=0;exitDy=0;entryX=0.5;entryY=0;entryDx=0;entryDy=0;" parent="1" source="tOVqJOseBS--4NqwXfb2-6" target="tOVqJOseBS--4NqwXfb2-8" edge="1">
          <mxGeometry relative="1" as="geometry" />
        </mxCell>
        <mxCell id="tOVqJOseBS--4NqwXfb2-49" style="edgeStyle=orthogonalEdgeStyle;rounded=0;orthogonalLoop=1;jettySize=auto;html=1;exitX=1;exitY=0.5;exitDx=0;exitDy=0;" parent="1" source="tOVqJOseBS--4NqwXfb2-6" edge="1">
          <mxGeometry relative="1" as="geometry">
            <mxPoint x="610" y="360" as="targetPoint" />
          </mxGeometry>
        </mxCell>
        <mxCell id="tOVqJOseBS--4NqwXfb2-6" value="&lt;font style=&quot;font-size: 16px;&quot;&gt;Start GStream thread&lt;/font&gt;" style="rounded=0;whiteSpace=wrap;html=1;" parent="1" vertex="1">
          <mxGeometry x="240" y="330" width="120" height="60" as="geometry" />
        </mxCell>
        <mxCell id="tOVqJOseBS--4NqwXfb2-11" style="edgeStyle=orthogonalEdgeStyle;rounded=0;orthogonalLoop=1;jettySize=auto;html=1;exitX=0.5;exitY=1;exitDx=0;exitDy=0;entryX=0.5;entryY=0;entryDx=0;entryDy=0;" parent="1" source="tOVqJOseBS--4NqwXfb2-8" target="tOVqJOseBS--4NqwXfb2-10" edge="1">
          <mxGeometry relative="1" as="geometry" />
        </mxCell>
        <mxCell id="tOVqJOseBS--4NqwXfb2-8" value="&lt;font style=&quot;font-size: 16px;&quot;&gt;Start keyboard listener thread&lt;/font&gt;" style="rounded=0;whiteSpace=wrap;html=1;" parent="1" vertex="1">
          <mxGeometry x="240" y="410" width="120" height="60" as="geometry" />
        </mxCell>
        <mxCell id="tOVqJOseBS--4NqwXfb2-15" style="edgeStyle=orthogonalEdgeStyle;rounded=0;orthogonalLoop=1;jettySize=auto;html=1;exitX=0.5;exitY=1;exitDx=0;exitDy=0;entryX=0.5;entryY=0;entryDx=0;entryDy=0;" parent="1" source="tOVqJOseBS--4NqwXfb2-10" edge="1">
          <mxGeometry relative="1" as="geometry">
            <mxPoint x="300" y="570" as="targetPoint" />
          </mxGeometry>
        </mxCell>
        <mxCell id="tOVqJOseBS--4NqwXfb2-10" value="&lt;font style=&quot;font-size: 16px;&quot;&gt;Start command loop thread&lt;/font&gt;" style="rounded=0;whiteSpace=wrap;html=1;" parent="1" vertex="1">
          <mxGeometry x="240" y="490" width="120" height="60" as="geometry" />
        </mxCell>
        <mxCell id="tOVqJOseBS--4NqwXfb2-24" value="&lt;font style=&quot;font-size: 16px;&quot;&gt;&amp;lt; Heartbeat &amp;gt;&lt;/font&gt;" style="swimlane;whiteSpace=wrap;html=1;" parent="1" vertex="1">
          <mxGeometry x="450" y="190" width="140" height="580" as="geometry" />
        </mxCell>
        <mxCell id="tOVqJOseBS--4NqwXfb2-25" value="&lt;font style=&quot;font-size: 16px;&quot;&gt;&quot;HEARTBEAT&quot;&lt;/font&gt;" style="text;html=1;align=center;verticalAlign=middle;resizable=0;points=[];autosize=1;strokeColor=none;fillColor=none;" parent="tOVqJOseBS--4NqwXfb2-24" vertex="1">
          <mxGeometry x="5" y="40" width="130" height="30" as="geometry" />
        </mxCell>
        <mxCell id="tOVqJOseBS--4NqwXfb2-26" value="&lt;font style=&quot;font-size: 16px;&quot;&gt;&quot;HEARTBEAT&quot;&lt;/font&gt;" style="text;html=1;align=center;verticalAlign=middle;resizable=0;points=[];autosize=1;strokeColor=none;fillColor=none;" parent="tOVqJOseBS--4NqwXfb2-24" vertex="1">
          <mxGeometry x="5" y="70" width="130" height="30" as="geometry" />
        </mxCell>
        <mxCell id="tOVqJOseBS--4NqwXfb2-27" value="&lt;font style=&quot;font-size: 16px;&quot;&gt;&quot;HEARTBEAT&quot;&lt;/font&gt;" style="text;html=1;align=center;verticalAlign=middle;resizable=0;points=[];autosize=1;strokeColor=none;fillColor=none;" parent="tOVqJOseBS--4NqwXfb2-24" vertex="1">
          <mxGeometry x="5" y="100" width="130" height="30" as="geometry" />
        </mxCell>
        <mxCell id="tOVqJOseBS--4NqwXfb2-29" value="&lt;font style=&quot;font-size: 20px;&quot;&gt;&lt;b style=&quot;&quot;&gt;...&lt;/b&gt;&lt;/font&gt;" style="text;html=1;align=center;verticalAlign=middle;resizable=0;points=[];autosize=1;strokeColor=none;fillColor=none;" parent="tOVqJOseBS--4NqwXfb2-24" vertex="1">
          <mxGeometry x="50" y="120" width="40" height="40" as="geometry" />
        </mxCell>
        <mxCell id="tOVqJOseBS--4NqwXfb2-31" value="&lt;font style=&quot;font-size: 16px;&quot;&gt;&amp;lt; GStream &amp;gt;&lt;/font&gt;" style="swimlane;whiteSpace=wrap;html=1;" parent="1" vertex="1">
          <mxGeometry x="610" y="350" width="160" height="420" as="geometry" />
        </mxCell>
        <mxCell id="tOVqJOseBS--4NqwXfb2-37" value="&lt;span style=&quot;font-size: 16px;&quot;&gt;Receive and display&lt;/span&gt;&lt;div&gt;&lt;span style=&quot;font-size: 16px;&quot;&gt;video feed&lt;/span&gt;&lt;div&gt;&lt;span style=&quot;font-size: 16px;&quot;&gt;from server in&lt;/span&gt;&lt;/div&gt;&lt;/div&gt;&lt;div&gt;&lt;span style=&quot;font-size: 16px;&quot;&gt;separate window&lt;/span&gt;&lt;/div&gt;" style="text;html=1;align=center;verticalAlign=middle;resizable=0;points=[];autosize=1;strokeColor=none;fillColor=none;" parent="tOVqJOseBS--4NqwXfb2-31" vertex="1">
          <mxGeometry x="-5" y="205" width="170" height="90" as="geometry" />
        </mxCell>
        <mxCell id="tOVqJOseBS--4NqwXfb2-39" value="&lt;font style=&quot;font-size: 16px;&quot;&gt;&amp;lt; Keyboard &amp;gt;&lt;/font&gt;" style="swimlane;whiteSpace=wrap;html=1;" parent="1" vertex="1">
          <mxGeometry x="790" y="430" width="160" height="340" as="geometry" />
        </mxCell>
        <mxCell id="tOVqJOseBS--4NqwXfb2-40" value="&lt;span style=&quot;font-size: 16px;&quot;&gt;Send pressed key&lt;/span&gt;&lt;div&gt;&lt;span style=&quot;font-size: 16px;&quot;&gt;as command to&lt;/span&gt;&lt;/div&gt;&lt;div&gt;&lt;span style=&quot;font-size: 16px;&quot;&gt;server,&amp;nbsp;&lt;/span&gt;&lt;span style=&quot;font-size: 16px; background-color: initial;&quot;&gt;update&lt;/span&gt;&lt;/div&gt;&lt;div&gt;&lt;span style=&quot;font-size: 16px;&quot;&gt;cmd info for cmd loop&lt;/span&gt;&lt;/div&gt;" style="text;html=1;align=center;verticalAlign=middle;resizable=0;points=[];autosize=1;strokeColor=none;fillColor=none;" parent="tOVqJOseBS--4NqwXfb2-39" vertex="1">
          <mxGeometry x="-10" y="120" width="180" height="90" as="geometry" />
        </mxCell>
        <mxCell id="tOVqJOseBS--4NqwXfb2-47" value="&lt;font style=&quot;font-size: 16px;&quot;&gt;&amp;lt; Main &amp;gt;&lt;/font&gt;" style="swimlane;whiteSpace=wrap;html=1;" parent="1" vertex="1">
          <mxGeometry x="50" y="30" width="380" height="860" as="geometry" />
        </mxCell>
        <mxCell id="T-RJG8IrfPC4kw9vAlBB-8" value="&lt;font style=&quot;font-size: 16px;&quot;&gt;No&lt;/font&gt;" style="edgeStyle=orthogonalEdgeStyle;rounded=0;orthogonalLoop=1;jettySize=auto;html=1;exitX=0;exitY=0.5;exitDx=0;exitDy=0;entryX=0;entryY=0;entryDx=0;entryDy=0;" parent="tOVqJOseBS--4NqwXfb2-47" source="tOVqJOseBS--4NqwXfb2-17" target="tOVqJOseBS--4NqwXfb2-17" edge="1">
          <mxGeometry x="-0.8005" relative="1" as="geometry">
            <mxPoint x="170" y="540" as="targetPoint" />
            <Array as="points">
              <mxPoint x="130" y="585" />
              <mxPoint x="130" y="541" />
              <mxPoint x="215" y="541" />
            </Array>
            <mxPoint as="offset" />
          </mxGeometry>
        </mxCell>
        <mxCell id="T-RJG8IrfPC4kw9vAlBB-10" value="&lt;font style=&quot;font-size: 16px;&quot;&gt;Yes&lt;/font&gt;" style="edgeStyle=orthogonalEdgeStyle;rounded=0;orthogonalLoop=1;jettySize=auto;html=1;exitX=0.5;exitY=1;exitDx=0;exitDy=0;" parent="tOVqJOseBS--4NqwXfb2-47" source="tOVqJOseBS--4NqwXfb2-17" edge="1">
          <mxGeometry x="-0.2086" relative="1" as="geometry">
            <mxPoint x="250" y="680" as="targetPoint" />
            <mxPoint as="offset" />
          </mxGeometry>
        </mxCell>
        <mxCell id="tOVqJOseBS--4NqwXfb2-17" value="&lt;span style=&quot;font-size: 16px;&quot;&gt;Exit video or&lt;/span&gt;&lt;div&gt;&lt;span style=&quot;font-size: 16px;&quot;&gt;CTRL+C?&lt;/span&gt;&lt;/div&gt;" style="rhombus;whiteSpace=wrap;html=1;" parent="tOVqJOseBS--4NqwXfb2-47" vertex="1">
          <mxGeometry x="180" y="540" width="140" height="90" as="geometry" />
        </mxCell>
        <mxCell id="T-RJG8IrfPC4kw9vAlBB-17" style="edgeStyle=orthogonalEdgeStyle;rounded=0;orthogonalLoop=1;jettySize=auto;html=1;exitX=0.5;exitY=1;exitDx=0;exitDy=0;entryX=0.5;entryY=0;entryDx=0;entryDy=0;" parent="tOVqJOseBS--4NqwXfb2-47" source="T-RJG8IrfPC4kw9vAlBB-11" target="T-RJG8IrfPC4kw9vAlBB-14" edge="1">
          <mxGeometry relative="1" as="geometry" />
        </mxCell>
        <mxCell id="T-RJG8IrfPC4kw9vAlBB-11" value="&lt;span style=&quot;font-size: 16px;&quot;&gt;Notify server of shutdown&lt;/span&gt;" style="rounded=0;whiteSpace=wrap;html=1;" parent="tOVqJOseBS--4NqwXfb2-47" vertex="1">
          <mxGeometry x="190" y="680" width="120" height="60" as="geometry" />
        </mxCell>
        <mxCell id="T-RJG8IrfPC4kw9vAlBB-14" value="&lt;font style=&quot;font-size: 20px;&quot;&gt;END&lt;/font&gt;" style="ellipse;whiteSpace=wrap;html=1;" parent="tOVqJOseBS--4NqwXfb2-47" vertex="1">
          <mxGeometry x="190" y="760" width="120" height="80" as="geometry" />
        </mxCell>
        <mxCell id="tOVqJOseBS--4NqwXfb2-48" style="edgeStyle=orthogonalEdgeStyle;rounded=0;orthogonalLoop=1;jettySize=auto;html=1;exitX=1;exitY=0.5;exitDx=0;exitDy=0;" parent="1" source="tOVqJOseBS--4NqwXfb2-1" edge="1">
          <mxGeometry relative="1" as="geometry">
            <mxPoint x="450" y="200" as="targetPoint" />
          </mxGeometry>
        </mxCell>
        <mxCell id="ZR7N2brsCp0cxNk4SphN-1" value="&lt;b&gt;&lt;font style=&quot;font-size: 45px;&quot;&gt;CONTROLLER TASKS&lt;/font&gt;&lt;/b&gt;" style="text;html=1;align=right;verticalAlign=middle;whiteSpace=wrap;rounded=0;" parent="1" vertex="1">
          <mxGeometry x="642.5" y="30" width="487.5" height="30" as="geometry" />
        </mxCell>
        <mxCell id="T-RJG8IrfPC4kw9vAlBB-2" value="&lt;font style=&quot;font-size: 16px;&quot;&gt;&amp;lt; Command Loop &amp;gt;&lt;/font&gt;" style="swimlane;whiteSpace=wrap;html=1;" parent="1" vertex="1">
          <mxGeometry x="970" y="510" width="160" height="260" as="geometry" />
        </mxCell>
        <mxCell id="T-RJG8IrfPC4kw9vAlBB-3" value="&lt;span style=&quot;font-size: 16px;&quot;&gt;Periodically re-send&amp;nbsp;&lt;/span&gt;&lt;div&gt;&lt;span style=&quot;font-size: 16px;&quot;&gt;the l&lt;/span&gt;&lt;span style=&quot;font-size: 16px; background-color: initial;&quot;&gt;ast sent&lt;/span&gt;&lt;div&gt;&lt;div&gt;&lt;span style=&quot;font-size: 16px;&quot;&gt;command to the&lt;/span&gt;&lt;/div&gt;&lt;div&gt;&lt;span style=&quot;font-size: 16px;&quot;&gt;server for&lt;/span&gt;&lt;/div&gt;&lt;div&gt;&lt;span style=&quot;font-size: 16px;&quot;&gt;disconnect detection&lt;/span&gt;&lt;/div&gt;&lt;/div&gt;&lt;/div&gt;" style="text;html=1;align=center;verticalAlign=middle;resizable=0;points=[];autosize=1;strokeColor=none;fillColor=none;" parent="T-RJG8IrfPC4kw9vAlBB-2" vertex="1">
          <mxGeometry x="-4.999999999999999" y="30" width="170" height="110" as="geometry" />
        </mxCell>
        <mxCell id="T-RJG8IrfPC4kw9vAlBB-5" style="edgeStyle=orthogonalEdgeStyle;rounded=0;orthogonalLoop=1;jettySize=auto;html=1;exitX=1;exitY=0.5;exitDx=0;exitDy=0;entryX=0;entryY=0.027;entryDx=0;entryDy=0;entryPerimeter=0;" parent="1" source="tOVqJOseBS--4NqwXfb2-8" target="tOVqJOseBS--4NqwXfb2-39" edge="1">
          <mxGeometry relative="1" as="geometry" />
        </mxCell>
        <mxCell id="T-RJG8IrfPC4kw9vAlBB-7" style="edgeStyle=orthogonalEdgeStyle;rounded=0;orthogonalLoop=1;jettySize=auto;html=1;exitX=1;exitY=0.5;exitDx=0;exitDy=0;" parent="1" source="tOVqJOseBS--4NqwXfb2-10" edge="1">
          <mxGeometry relative="1" as="geometry">
            <mxPoint x="970" y="520" as="targetPoint" />
          </mxGeometry>
        </mxCell>
      </root>
    </mxGraphModel>
  </diagram>
</mxfile>
